<?xml version="1.0" encoding="UTF-8" standalone="no"?>
<!DOCTYPE svg PUBLIC "-//W3C//DTD SVG 1.1//EN"
 "http://www.w3.org/Graphics/SVG/1.1/DTD/svg11.dtd">
<!-- Generated by graphviz version 2.38.0 (20140413.2041)
 -->
<!-- Title: torch&#45;jit&#45;export Pages: 1 -->
<svg width="1209pt" height="223pt"
 viewBox="0.00 0.00 1209.00 223.00" xmlns="http://www.w3.org/2000/svg" xmlns:xlink="http://www.w3.org/1999/xlink">
<g id="graph0" class="graph" transform="scale(1 1) rotate(0) translate(4 219)">
<title>torch&#45;jit&#45;export</title>
<polygon fill="white" stroke="none" points="-4,4 -4,-219 1205,-219 1205,4 -4,4"/>
<!-- Transpose (op#0)\n input0 2\n output0 6 -->
<g id="node1" class="node"><title>Transpose (op#0)\n input0 2\n output0 6</title>
<polygon fill="#0f9d58" stroke="#0f9d58" points="202,-53 90,-53 90,-0 202,-0 202,-53"/>
<text text-anchor="middle" x="146" y="-37.8" font-family="Times,serif" font-size="14.00" fill="#ffffff">Transpose (op#0)</text>
<text text-anchor="middle" x="146" y="-22.8" font-family="Times,serif" font-size="14.00" fill="#ffffff"> input0 2</text>
<text text-anchor="middle" x="146" y="-7.8" font-family="Times,serif" font-size="14.00" fill="#ffffff"> output0 6</text>
</g>
<!-- 60 -->
<g id="node2" class="node"><title>60</title>
<polygon fill="none" stroke="black" points="292,-19.0442 292,-33.9558 276.184,-44.5 253.816,-44.5 238,-33.9558 238,-19.0442 253.816,-8.5 276.184,-8.5 292,-19.0442"/>
<text text-anchor="middle" x="265" y="-22.8" font-family="Times,serif" font-size="14.00">6</text>
</g>
<!-- Transpose (op#0)\n input0 2\n output0 6&#45;&gt;60 -->
<g id="edge1" class="edge"><title>Transpose (op#0)\n input0 2\n output0 6&#45;&gt;60</title>
<path fill="none" stroke="black" d="M202.074,-26.5C210.728,-26.5 219.483,-26.5 227.577,-26.5"/>
<polygon fill="black" stroke="black" points="227.773,-30.0001 237.773,-26.5 227.772,-23.0001 227.773,-30.0001"/>
</g>
<!-- Gemm (op#1)\n input0 1\n input1 6\n input2 3\n output0 8 -->
<g id="node4" class="node"><title>Gemm (op#1)\n input0 1\n input1 6\n input2 3\n output0 8</title>
<polygon fill="#0f9d58" stroke="#0f9d58" points="423,-122 328,-122 328,-39 423,-39 423,-122"/>
<text text-anchor="middle" x="375.5" y="-106.8" font-family="Times,serif" font-size="14.00" fill="#ffffff">Gemm (op#1)</text>
<text text-anchor="middle" x="375.5" y="-91.8" font-family="Times,serif" font-size="14.00" fill="#ffffff"> input0 1</text>
<text text-anchor="middle" x="375.5" y="-76.8" font-family="Times,serif" font-size="14.00" fill="#ffffff"> input1 6</text>
<text text-anchor="middle" x="375.5" y="-61.8" font-family="Times,serif" font-size="14.00" fill="#ffffff"> input2 3</text>
<text text-anchor="middle" x="375.5" y="-46.8" font-family="Times,serif" font-size="14.00" fill="#ffffff"> output0 8</text>
</g>
<!-- 60&#45;&gt;Gemm (op#1)\n input0 1\n input1 6\n input2 3\n output0 8 -->
<g id="edge3" class="edge"><title>60&#45;&gt;Gemm (op#1)\n input0 1\n input1 6\n input2 3\n output0 8</title>
<path fill="none" stroke="black" d="M287.436,-37.1687C296.598,-41.7283 307.759,-47.2832 318.992,-52.874"/>
<polygon fill="black" stroke="black" points="317.468,-56.0247 327.98,-57.347 320.587,-49.7579 317.468,-56.0247"/>
</g>
<!-- 20 -->
<g id="node3" class="node"><title>20</title>
<polygon fill="none" stroke="black" points="54,-19.0442 54,-33.9558 38.1838,-44.5 15.8162,-44.5 3.55271e-15,-33.9558 0,-19.0442 15.8162,-8.5 38.1838,-8.5 54,-19.0442"/>
<text text-anchor="middle" x="27" y="-22.8" font-family="Times,serif" font-size="14.00">2</text>
</g>
<!-- 20&#45;&gt;Transpose (op#0)\n input0 2\n output0 6 -->
<g id="edge2" class="edge"><title>20&#45;&gt;Transpose (op#0)\n input0 2\n output0 6</title>
<path fill="none" stroke="black" d="M54.2571,-26.5C61.8935,-26.5 70.5959,-26.5 79.5181,-26.5"/>
<polygon fill="black" stroke="black" points="79.6399,-30.0001 89.6399,-26.5 79.6398,-23.0001 79.6399,-30.0001"/>
</g>
<!-- 80 -->
<g id="node5" class="node"><title>80</title>
<polygon fill="none" stroke="black" points="513,-73.0442 513,-87.9558 497.184,-98.5 474.816,-98.5 459,-87.9558 459,-73.0442 474.816,-62.5 497.184,-62.5 513,-73.0442"/>
<text text-anchor="middle" x="486" y="-76.8" font-family="Times,serif" font-size="14.00">8</text>
</g>
<!-- Gemm (op#1)\n input0 1\n input1 6\n input2 3\n output0 8&#45;&gt;80 -->
<g id="edge4" class="edge"><title>Gemm (op#1)\n input0 1\n input1 6\n input2 3\n output0 8&#45;&gt;80</title>
<path fill="none" stroke="black" d="M423.143,-80.5C431.61,-80.5 440.328,-80.5 448.452,-80.5"/>
<polygon fill="black" stroke="black" points="448.718,-84.0001 458.718,-80.5 448.718,-77.0001 448.718,-84.0001"/>
</g>
<!-- Sigmoid (op#2)\n input0 8\n output0 9 -->
<g id="node8" class="node"><title>Sigmoid (op#2)\n input0 8\n output0 9</title>
<polygon fill="#0f9d58" stroke="#0f9d58" points="656.5,-107 553.5,-107 553.5,-54 656.5,-54 656.5,-107"/>
<text text-anchor="middle" x="605" y="-91.8" font-family="Times,serif" font-size="14.00" fill="#ffffff">Sigmoid (op#2)</text>
<text text-anchor="middle" x="605" y="-76.8" font-family="Times,serif" font-size="14.00" fill="#ffffff"> input0 8</text>
<text text-anchor="middle" x="605" y="-61.8" font-family="Times,serif" font-size="14.00" fill="#ffffff"> output0 9</text>
</g>
<!-- 80&#45;&gt;Sigmoid (op#2)\n input0 8\n output0 9 -->
<g id="edge7" class="edge"><title>80&#45;&gt;Sigmoid (op#2)\n input0 8\n output0 9</title>
<path fill="none" stroke="black" d="M513.257,-80.5C522.243,-80.5 532.705,-80.5 543.265,-80.5"/>
<polygon fill="black" stroke="black" points="543.373,-84.0001 553.373,-80.5 543.373,-77.0001 543.373,-84.0001"/>
</g>
<!-- 10 -->
<g id="node6" class="node"><title>10</title>
<polygon fill="none" stroke="black" points="292,-127.044 292,-141.956 276.184,-152.5 253.816,-152.5 238,-141.956 238,-127.044 253.816,-116.5 276.184,-116.5 292,-127.044"/>
<text text-anchor="middle" x="265" y="-130.8" font-family="Times,serif" font-size="14.00">1</text>
</g>
<!-- 10&#45;&gt;Gemm (op#1)\n input0 1\n input1 6\n input2 3\n output0 8 -->
<g id="edge5" class="edge"><title>10&#45;&gt;Gemm (op#1)\n input0 1\n input1 6\n input2 3\n output0 8</title>
<path fill="none" stroke="black" d="M287.436,-123.831C296.598,-119.272 307.759,-113.717 318.992,-108.126"/>
<polygon fill="black" stroke="black" points="320.587,-111.242 327.98,-103.653 317.468,-104.975 320.587,-111.242"/>
</g>
<!-- 30 -->
<g id="node7" class="node"><title>30</title>
<polygon fill="none" stroke="black" points="292,-73.0442 292,-87.9558 276.184,-98.5 253.816,-98.5 238,-87.9558 238,-73.0442 253.816,-62.5 276.184,-62.5 292,-73.0442"/>
<text text-anchor="middle" x="265" y="-76.8" font-family="Times,serif" font-size="14.00">3</text>
</g>
<!-- 30&#45;&gt;Gemm (op#1)\n input0 1\n input1 6\n input2 3\n output0 8 -->
<g id="edge6" class="edge"><title>30&#45;&gt;Gemm (op#1)\n input0 1\n input1 6\n input2 3\n output0 8</title>
<path fill="none" stroke="black" d="M292.265,-80.5C300.011,-80.5 308.806,-80.5 317.693,-80.5"/>
<polygon fill="black" stroke="black" points="317.714,-84.0001 327.714,-80.5 317.714,-77.0001 317.714,-84.0001"/>
</g>
<!-- 90 -->
<g id="node9" class="node"><title>90</title>
<polygon fill="none" stroke="black" points="751,-73.0442 751,-87.9558 735.184,-98.5 712.816,-98.5 697,-87.9558 697,-73.0442 712.816,-62.5 735.184,-62.5 751,-73.0442"/>
<text text-anchor="middle" x="724" y="-76.8" font-family="Times,serif" font-size="14.00">9</text>
</g>
<!-- Sigmoid (op#2)\n input0 8\n output0 9&#45;&gt;90 -->
<g id="edge8" class="edge"><title>Sigmoid (op#2)\n input0 8\n output0 9&#45;&gt;90</title>
<path fill="none" stroke="black" d="M656.637,-80.5C666.689,-80.5 677.055,-80.5 686.521,-80.5"/>
<polygon fill="black" stroke="black" points="686.761,-84.0001 696.761,-80.5 686.761,-77.0001 686.761,-84.0001"/>
</g>
<!-- Gemm (op#4)\n input0 9\n input1 10\n input2 5\n output0 12 -->
<g id="node10" class="node"><title>Gemm (op#4)\n input0 9\n input1 10\n input2 5\n output0 12</title>
<polygon fill="#0f9d58" stroke="#0f9d58" points="882,-176 787,-176 787,-93 882,-93 882,-176"/>
<text text-anchor="middle" x="834.5" y="-160.8" font-family="Times,serif" font-size="14.00" fill="#ffffff">Gemm (op#4)</text>
<text text-anchor="middle" x="834.5" y="-145.8" font-family="Times,serif" font-size="14.00" fill="#ffffff"> input0 9</text>
<text text-anchor="middle" x="834.5" y="-130.8" font-family="Times,serif" font-size="14.00" fill="#ffffff"> input1 10</text>
<text text-anchor="middle" x="834.5" y="-115.8" font-family="Times,serif" font-size="14.00" fill="#ffffff"> input2 5</text>
<text text-anchor="middle" x="834.5" y="-100.8" font-family="Times,serif" font-size="14.00" fill="#ffffff"> output0 12</text>
</g>
<!-- 90&#45;&gt;Gemm (op#4)\n input0 9\n input1 10\n input2 5\n output0 12 -->
<g id="edge9" class="edge"><title>90&#45;&gt;Gemm (op#4)\n input0 9\n input1 10\n input2 5\n output0 12</title>
<path fill="none" stroke="black" d="M746.436,-91.1687C755.598,-95.7283 766.759,-101.283 777.992,-106.874"/>
<polygon fill="black" stroke="black" points="776.468,-110.025 786.98,-111.347 779.587,-103.758 776.468,-110.025"/>
</g>
<!-- 120 -->
<g id="node14" class="node"><title>120</title>
<polygon fill="none" stroke="black" points="972,-127.044 972,-141.956 956.184,-152.5 933.816,-152.5 918,-141.956 918,-127.044 933.816,-116.5 956.184,-116.5 972,-127.044"/>
<text text-anchor="middle" x="945" y="-130.8" font-family="Times,serif" font-size="14.00">12</text>
</g>
<!-- Gemm (op#4)\n input0 9\n input1 10\n input2 5\n output0 12&#45;&gt;120 -->
<g id="edge13" class="edge"><title>Gemm (op#4)\n input0 9\n input1 10\n input2 5\n output0 12&#45;&gt;120</title>
<path fill="none" stroke="black" d="M882.143,-134.5C890.61,-134.5 899.328,-134.5 907.452,-134.5"/>
<polygon fill="black" stroke="black" points="907.718,-138 917.718,-134.5 907.718,-131 907.718,-138"/>
</g>
<!-- Transpose (op#3)\n input0 4\n output0 10 -->
<g id="node11" class="node"><title>Transpose (op#3)\n input0 4\n output0 10</title>
<polygon fill="#0f9d58" stroke="#0f9d58" points="661,-215 549,-215 549,-162 661,-162 661,-215"/>
<text text-anchor="middle" x="605" y="-199.8" font-family="Times,serif" font-size="14.00" fill="#ffffff">Transpose (op#3)</text>
<text text-anchor="middle" x="605" y="-184.8" font-family="Times,serif" font-size="14.00" fill="#ffffff"> input0 4</text>
<text text-anchor="middle" x="605" y="-169.8" font-family="Times,serif" font-size="14.00" fill="#ffffff"> output0 10</text>
</g>
<!-- 100 -->
<g id="node12" class="node"><title>100</title>
<polygon fill="none" stroke="black" points="751,-181.044 751,-195.956 735.184,-206.5 712.816,-206.5 697,-195.956 697,-181.044 712.816,-170.5 735.184,-170.5 751,-181.044"/>
<text text-anchor="middle" x="724" y="-184.8" font-family="Times,serif" font-size="14.00">10</text>
</g>
<!-- Transpose (op#3)\n input0 4\n output0 10&#45;&gt;100 -->
<g id="edge10" class="edge"><title>Transpose (op#3)\n input0 4\n output0 10&#45;&gt;100</title>
<path fill="none" stroke="black" d="M661.074,-188.5C669.728,-188.5 678.483,-188.5 686.577,-188.5"/>
<polygon fill="black" stroke="black" points="686.773,-192 696.773,-188.5 686.772,-185 686.773,-192"/>
</g>
<!-- 100&#45;&gt;Gemm (op#4)\n input0 9\n input1 10\n input2 5\n output0 12 -->
<g id="edge12" class="edge"><title>100&#45;&gt;Gemm (op#4)\n input0 9\n input1 10\n input2 5\n output0 12</title>
<path fill="none" stroke="black" d="M746.436,-177.831C755.598,-173.272 766.759,-167.717 777.992,-162.126"/>
<polygon fill="black" stroke="black" points="779.587,-165.242 786.98,-157.653 776.468,-158.975 779.587,-165.242"/>
</g>
<!-- 40 -->
<g id="node13" class="node"><title>40</title>
<polygon fill="none" stroke="black" points="513,-181.044 513,-195.956 497.184,-206.5 474.816,-206.5 459,-195.956 459,-181.044 474.816,-170.5 497.184,-170.5 513,-181.044"/>
<text text-anchor="middle" x="486" y="-184.8" font-family="Times,serif" font-size="14.00">4</text>
</g>
<!-- 40&#45;&gt;Transpose (op#3)\n input0 4\n output0 10 -->
<g id="edge11" class="edge"><title>40&#45;&gt;Transpose (op#3)\n input0 4\n output0 10</title>
<path fill="none" stroke="black" d="M513.257,-188.5C520.894,-188.5 529.596,-188.5 538.518,-188.5"/>
<polygon fill="black" stroke="black" points="538.64,-192 548.64,-188.5 538.64,-185 538.64,-192"/>
</g>
<!-- Sigmoid (op#5)\n input0 12\n output0 13 -->
<g id="node16" class="node"><title>Sigmoid (op#5)\n input0 12\n output0 13</title>
<polygon fill="#0f9d58" stroke="#0f9d58" points="1111,-161 1008,-161 1008,-108 1111,-108 1111,-161"/>
<text text-anchor="middle" x="1059.5" y="-145.8" font-family="Times,serif" font-size="14.00" fill="#ffffff">Sigmoid (op#5)</text>
<text text-anchor="middle" x="1059.5" y="-130.8" font-family="Times,serif" font-size="14.00" fill="#ffffff"> input0 12</text>
<text text-anchor="middle" x="1059.5" y="-115.8" font-family="Times,serif" font-size="14.00" fill="#ffffff"> output0 13</text>
</g>
<!-- 120&#45;&gt;Sigmoid (op#5)\n input0 12\n output0 13 -->
<g id="edge15" class="edge"><title>120&#45;&gt;Sigmoid (op#5)\n input0 12\n output0 13</title>
<path fill="none" stroke="black" d="M972.093,-134.5C979.827,-134.5 988.641,-134.5 997.614,-134.5"/>
<polygon fill="black" stroke="black" points="997.763,-138 1007.76,-134.5 997.763,-131 997.763,-138"/>
</g>
<!-- 50 -->
<g id="node15" class="node"><title>50</title>
<polygon fill="none" stroke="black" points="751,-127.044 751,-141.956 735.184,-152.5 712.816,-152.5 697,-141.956 697,-127.044 712.816,-116.5 735.184,-116.5 751,-127.044"/>
<text text-anchor="middle" x="724" y="-130.8" font-family="Times,serif" font-size="14.00">5</text>
</g>
<!-- 50&#45;&gt;Gemm (op#4)\n input0 9\n input1 10\n input2 5\n output0 12 -->
<g id="edge14" class="edge"><title>50&#45;&gt;Gemm (op#4)\n input0 9\n input1 10\n input2 5\n output0 12</title>
<path fill="none" stroke="black" d="M751.265,-134.5C759.011,-134.5 767.806,-134.5 776.693,-134.5"/>
<polygon fill="black" stroke="black" points="776.714,-138 786.714,-134.5 776.714,-131 776.714,-138"/>
</g>
<!-- 130 -->
<g id="node17" class="node"><title>130</title>
<polygon fill="none" stroke="black" points="1201,-127.044 1201,-141.956 1185.18,-152.5 1162.82,-152.5 1147,-141.956 1147,-127.044 1162.82,-116.5 1185.18,-116.5 1201,-127.044"/>
<text text-anchor="middle" x="1174" y="-130.8" font-family="Times,serif" font-size="14.00">13</text>
</g>
<!-- Sigmoid (op#5)\n input0 12\n output0 13&#45;&gt;130 -->
<g id="edge16" class="edge"><title>Sigmoid (op#5)\n input0 12\n output0 13&#45;&gt;130</title>
<path fill="none" stroke="black" d="M1111.16,-134.5C1119.75,-134.5 1128.53,-134.5 1136.66,-134.5"/>
<polygon fill="black" stroke="black" points="1136.92,-138 1146.92,-134.5 1136.92,-131 1136.92,-138"/>
</g>
</g>
</svg>
